<svg id="Layer_1" data-name="Layer 1" xmlns="http://www.w3.org/2000/svg" viewBox="0 0 1030.21 352.5"><defs><style>.cls-1{fill:#00aed8;}.cls-2{isolation:isolate;}.cls-3{fill:#ff5b5c;}</style></defs><path class="cls-1" d="M942.41,181.84l-.1-51.82c0-3.36-1.83-4.75-5.08-5.62-4.24-1.13-11.84-1.91-19.65-2.31a5.61,5.61,0,0,0-5.67,5.74s.1,38.29,0,55.7c-.09,10.22-5.7,17-14.8,18.72a3.39,3.39,0,0,0-.44.08c-.37.06-.73.11-1.15.15l-1,.12c-.32,0-.63,0-.94,0s-.82,0-1.24,0H891a6.79,6.79,0,0,1-.95,0c-.3,0-.72-.08-1-.12s-.78-.09-1.15-.15l-.44-.08c-9.09-1.72-14.7-8.5-14.8-18.72-.16-17.41,0-55.7,0-55.7a5.61,5.61,0,0,0-5.67-5.74c-7.82.4-15.4,1.18-19.65,2.31-3.24.87-5.08,2.26-5.08,5.62,0,0,0,15.53.08,23.32,0,7.12.05,7.92-.16,27.43v1.07s.06,5.09.37,10.57c.89,10.8,5.87,18.76,9.89,23.9a43.81,43.81,0,0,0,20.23,12.93l.73.21c1,.31,2.07.6,3.12.85.31.08.61.16.91.22,1.22.28,2.45.5,3.69.73l.42.07a68,68,0,0,0,8.77.78h4a67.71,67.71,0,0,0,8.77-.78l.43-.07c1.24-.2,2.47-.43,3.68-.73l.92-.22c1-.25,2.09-.54,3.12-.85l.73-.21a43.73,43.73,0,0,0,20.22-12.93c5.89-7.11,8.42-12.78,9.9-23.9A76.63,76.63,0,0,0,942.41,181.84Z"/><path class="cls-1" d="M581.6,157.32c0,15.17,0,24.09,0,24.45,0,6.09.17,7.82.32,9.8,0,.54.09,1.08.16,1.61,1.48,10.82,4.59,16.75,9.81,23.13a43.75,43.75,0,0,0,20.25,12.95c.24.08.48.14.73.21,1,.32,2.09.6,3.15.86l.89.21c1.22.28,2.45.51,3.7.73l.43.07a68,68,0,0,0,8.78.77h4a68,68,0,0,0,8.78-.77l1.13-.19c1-.17,2-.37,3-.61l.89-.21c1.06-.26,2.1-.54,3.14-.86l.73-.21A47.81,47.81,0,0,0,662.83,224a7.44,7.44,0,0,1,8.08,0,48,48,0,0,0,11.35,5.26c.23.08.47.14.73.21,1,.32,2.09.6,3.15.86l.89.21c1.22.28,2.46.51,3.7.73l.43.07a68,68,0,0,0,8.78.77h4a67.85,67.85,0,0,0,8.78-.77l1.14-.19c1-.17,2-.37,3-.61l.9-.21c1.06-.26,2.1-.54,3.14-.86l.72-.21a43.73,43.73,0,0,0,20.26-12.95,37.13,37.13,0,0,0,9.91-23.95c.26-3.71.39-6.93.38-10.59L752,153.23c0-7.81.07-23.36.07-23.36,0-3.36-1.83-4.76-5.08-5.63-4.18-1.12-11.61-1.88-19.27-2.3a5.75,5.75,0,0,0-6.07,5.41c0,.11.09,38.69-.06,56.14-.1,10.23-5.72,17-14.83,18.74a3.58,3.58,0,0,0-.43.08c-.37.07-.73.1-1.16.16s-.72.08-1,.1-.63,0-1,.06l-1.23,0-1.23,0a5.16,5.16,0,0,1-1-.06c-.31,0-.72-.07-1-.1s-.78-.09-1.15-.16a2,2,0,0,1-.43-.08c-9.12-1.72-14.22-8.58-14.31-18.81-.16-17.42,0-53.13,0-53.13a5.35,5.35,0,0,0-3.71-5.08,39.49,39.49,0,0,0-23.62,0c-2.29.72-4.41,2.71-4.41,5.08,0,0,.1,35.68-.06,53.13-.09,10.23-5.19,17.09-14.3,18.81a3.73,3.73,0,0,0-.44.08c-.37.07-.76.1-1.15.16s-.69.08-1,.1a9.1,9.1,0,0,0-.94.06l-1.23,0-1.24,0a5.06,5.06,0,0,1-1-.06c-.31,0-.72-.07-1-.1s-.78-.09-1.16-.16l-.43-.08c-9.11-1.72-14.73-8.51-14.82-18.74-.16-17.42-.06-55.82-.06-55.82a5.77,5.77,0,0,0-5.77-5.74h-.3c-7.69.42-15.1,1.18-19.28,2.3-3.25.87-5.08,2.27-5.08,5.63v.06S581.6,156.25,581.6,157.32Z"/><path class="cls-1" d="M397.45,120.93q-18.74,0-29.69,11a1,1,0,0,1-1.4,0,.94.94,0,0,1-.28-.71V124c0-1.33-.36-1.9-2.53-2a51.63,51.63,0,0,0-27.41,6,3.33,3.33,0,0,0-1.64,3.29v138a2.08,2.08,0,0,0,2.08,2.08s16.16,1,27.39-3.16a3.56,3.56,0,0,0,2.09-3.69V222.1a1.12,1.12,0,0,1,1.12-1.12,1.1,1.1,0,0,1,.79.32q10.92,10.8,29.46,10.8,20.85,0,35.56-16.11t14.73-39.48q0-23.35-14.73-39.47T397.45,120.93Zm11.69,74.33q-7.06,6.94-18,6.94t-18-6.94q-7-7-7.05-18.75t7.05-18.71q7.06-6.95,18-7t18,7q7,6.94,7.05,18.74T409.14,195.26Z"/><path class="cls-1" d="M568.93,129.72a3.38,3.38,0,0,0-2.35-3.58,80,80,0,0,0-26-4.26c-2.9.35-3.25,1-3.25,2.77v5.57a1.45,1.45,0,0,1-1.52,1.38,1.44,1.44,0,0,1-.9-.36Q524,120.92,506,120.92q-20.84,0-35.56,16.11t-14.74,39.48q0,23.37,14.74,39.48T506,232.1q17.85,0,28.65-10a1.62,1.62,0,0,1,2.73,1.15v3.12c0,1.55,1.23,2.54,2.8,2.81,0,0,8.48,1.82,26,1.4,3.06-.33,2.81-2.83,2.81-4.35Zm-38.54,65.54q-6.95,6.94-18.1,6.94t-18.11-6.94q-7-7-6.95-18.75t6.95-18.71q6.94-6.95,18.11-7t18.1,7q7,6.94,7,18.74T530.39,195.26Z"/><path class="cls-1" d="M826.36,121.89c-6,.44-9.92.94-15.33,3.4a36.72,36.72,0,0,0-9.83,6.64c-1.24,1.31-3.31.9-3.31-.91V125c0-1.76-1.69-2.59-3.33-2.82,0,0-15.45-1.88-25.85,4.25-2.4,1.17-2.4,2.3-2.4,3.71V227c0,1.58.19,3,2.9,3.58,12.29,2,25.86-1.45,25.86-1.45,1.61-.51,2.85-1.29,2.85-2.91V183.31c0-9.55,3.34-17.55,10-21.41,5.76-3.34,11.93-5.2,18.48-4.7a2.91,2.91,0,0,0,3.1-2.7V124.76a2.9,2.9,0,0,0-2.92-2.88Z"/><g class="cls-2"><path class="cls-1" d="M963.05,120.84H958.9v12.44h-2.43V120.84H952.3v-2.31h10.75Z"/><path class="cls-1" d="M979,133.28h-2.42V122.76l-4.49,7.42h-.3l-4.49-7.44v10.54h-2.42V118.53h2.61l4.45,7.37,4.47-7.37H979Z"/></g><path class="cls-3" d="M278.36,118.88c-3.63-7.42-12.58-17.17-20.48-21.92-23.37-14.27-44.81-16-63.67-16.13-11.21.65-11.77-15.07,3.46-11.76,9.59.8,15.64,5.72,17-.41.72-3.38-9.27-8.3-16.53-10.64-27.08-8.86-54.32-7.73-73.26-4.19C75.15,63.18,56.13,106.39,59,111.63,64.83,122.1,74.75,94.54,94.34,89c15.07-4.28,17.33,7.89,9.51,11.2-58.2,24.34-54.49,61-53.36,81.57,1.93,37.72,35.95,77.87,61.18,90,3.14,1.53,3.14,5.16,2.25,7.17-3.46,7.9-24.74,11.45-26.11,13.86-6,10.81,36.91,6.86,48.52,5.65s45.22-7.26,58.52-12.42c20.55-8,26.36-13.86,31.36-17l.8-.57c37.4-26.92,53.76-70.85,58.2-110.67A70.66,70.66,0,0,0,278.36,118.88Zm-146-2.26c.89-3.14,1.37-5.48,8.63-11.28a36.25,36.25,0,0,1,5.56-3.06c15.31-7.18,32.88-6.21,45.22-2.42A13.08,13.08,0,0,1,198.4,105c2.66,3.78,2.09,8.06,1,14.67-1.12,7.33-1.53,9.43-5.8,17.81a124,124,0,0,1-8.78,12.09c-3,2.9-6.05,4.92-10.08,5.48s-10.08-2.26-10.16-2.26c-1.61-.4-9-7.25-10.72-8.94-4.11-4-7.49-6.61-13.62-11.05C132.22,127,130.69,122.67,132.38,116.62Zm129.37,46.27c-2,9.35-5.16,21.36-10.15,30.87s-19.11,34.34-37,49.41c-6.69,5.64-10,8.3-21.93,13.71-5.07,2.25-23.37,7.17-38,3.78-11.29-2.66-17.17-5.32-24.59-10.07-6.36-4.11-14.75-9.27-22.16-17.65-7-7.82-9.67-12.34-15.08-19.35a126.66,126.66,0,0,1-14.42-25c-1.29-3.3-3.87-8.78-4.68-13.7-.56-3.55-.08-8.54,5.48-9,3.55-.24,12.9,9,16.37,13.3,2.41,3,9.59,11.05,17.49,16.28a61.6,61.6,0,0,0,20.15,9.27c3.62.89,11.77,1.13,16.6.81,5.56-.4,12.66-1.53,17.49-5.56a19.75,19.75,0,0,0,4.36-6.53c1-3.14,1.45-6.13,4-6.85,1.61-.49,4.27-.08,4.67,3.79.81,7.41,11,10.8,15.56,10.48,6.37-.41,13-2.5,21.6-9.27s16.12-13.87,21.84-23.46c4.92-8.3,8.06-14.59,10.24-23.13,1.29-5.57,1.61-7.42,4.19-9.51s9.59-2.5,10,6.44A95.11,95.11,0,0,1,261.75,162.89Z"/></svg>